<?xml version="1.0" encoding="UTF-8" standalone="no"?>
<svg
   xmlns:dc="http://purl.org/dc/elements/1.1/"
   xmlns:cc="http://creativecommons.org/ns#"
   xmlns:rdf="http://www.w3.org/1999/02/22-rdf-syntax-ns#"
   xmlns:svg="http://www.w3.org/2000/svg"
   xmlns="http://www.w3.org/2000/svg"
   xmlns:sodipodi="http://sodipodi.sourceforge.net/DTD/sodipodi-0.dtd"
   xmlns:inkscape="http://www.inkscape.org/namespaces/inkscape"
   version="1.1"
   id="svg2"
   xml:space="preserve"
   viewBox="0 0 3926.3333 4725.5869"
   sodipodi:docname="Wappen_Odin_2020.eps"><metadata
     id="metadata8"><rdf:RDF><cc:Work
         rdf:about=""><dc:format>image/svg+xml</dc:format><dc:type
           rdf:resource="http://purl.org/dc/dcmitype/StillImage" /></cc:Work></rdf:RDF></metadata><defs
     id="defs6" /><sodipodi:namedview
     pagecolor="#ffffff"
     bordercolor="#666666"
     borderopacity="1"
     objecttolerance="10"
     gridtolerance="10"
     guidetolerance="10"
     inkscape:pageopacity="0"
     inkscape:pageshadow="2"
     inkscape:window-width="640"
     inkscape:window-height="480"
     id="namedview4" /><g
     id="g10"
     inkscape:groupmode="layer"
     inkscape:label="ink_ext_XXXXXX"
     transform="matrix(1.3333333,0,0,-1.3333333,0,4725.5867)"><g
       id="g12"
       transform="scale(0.1)"><path
         d="M 28066,22741.3 C 22433.7,17552.5 8330.89,3981.9 8330.89,3981.9 9971.89,2562.8 12590.6,762.598 13253.7,522.898 16180.7,1808.9 28066,6642.8 28066,22741.3"
         style="fill:#f0393a;fill-opacity:1;fill-rule:nonzero;stroke:none"
         id="path14" /><path
         d="M 28066,22741.3 C 22433.7,17552.5 8330.89,3981.9 8330.89,3981.9 9971.89,2562.8 12590.6,762.598 13253.7,522.898 16180.7,1808.9 28066,6642.8 28066,22741.3 Z"
         style="fill:none;stroke:#231f20;stroke-width:10;stroke-linecap:butt;stroke-linejoin:miter;stroke-miterlimit:10;stroke-dasharray:none;stroke-opacity:1"
         id="path16" /><path
         d="M 5272.45,19286.3 2048.21,16422.7 1501.15,15617.3 1859.1,14415.6 3700.01,9966.7 5451.43,7525 8072.17,4239.5 l 843.75,345.1 2058.28,2071 2237.2,1892.1 5330.9,5254.3 7171.9,6992.9 2351.8,2262.7 -317.4,1689.2 -525.9,2657.4 -1917.6,5190.4 -1380.7,2007.1 -306.8,153.4 -1521.3,-409.1 -2339.5,-1022.7 -1176.1,-1214.5 -3349.4,-3349.5 -4934.7,-4678.9 -5024.15,-4794.1"
         style="fill:#ffffff;fill-opacity:1;fill-rule:nonzero;stroke:none"
         id="path18" /><path
         d="M 5581.32,34715.2 747.461,29703.9 c 0,0 3060.039,-2572.2 3060.039,-4878.3 0,-1286.1 -1374.83,-2261.8 -3060.039,-2350.5 0,-1995.6 487.889,-5188.7 665.259,-6430.4 C 4871.85,19149 20172,33695.2 20172,33695.2 16579.8,32985.7 9971.89,32364.8 5581.32,34715.2"
         style="fill:#0396d2;fill-opacity:1;fill-rule:nonzero;stroke:none"
         id="path20" /><path
         d="M 5581.32,34715.2 747.461,29703.9 c 0,0 3060.039,-2572.2 3060.039,-4878.3 0,-1286.1 -1374.83,-2261.8 -3060.039,-2350.5 0,-1995.6 487.889,-5188.7 665.259,-6430.4 C 4871.85,19149 20172,33695.2 20172,33695.2 16579.8,32985.7 9971.89,32364.8 5581.32,34715.2 Z"
         style="fill:none;stroke:#231f20;stroke-width:10;stroke-linecap:butt;stroke-linejoin:miter;stroke-miterlimit:10;stroke-dasharray:none;stroke-opacity:1"
         id="path22" /><path
         d="M 13276.3,1068.1 C 11658.1,2002.3 10254.7,3037.3 9036.18,4136.8 L 27637.5,22069.4 c 2.6,-117.4 4.2,-234.2 4.2,-350.5 C 27641.7,16467 24633,5437.6 13276.3,1068.1 Z M 2048.21,15838.6 20182.2,33017.9 l 322.4,283.2 c 924.5,198.9 1927.8,508.4 3127.9,944.8 2318.8,-4054.4 3640.5,-7775.1 3942.1,-11088.3 L 8431.56,4702.8 C 4812.78,8209.7 2968.86,12289.2 2048.21,15838.6 Z m 2249.61,8924.1 c 0,1622.4 -259.96,2280.3 -2929.07,4978.2 1179.13,1203.6 3609.86,3760.7 4348.21,4538.2 2995.16,-1076.3 5091.64,-1731.4 8586.94,-1731.4 1533.3,0 3077.5,140.8 4622.5,419.8 L 1824.91,16766.3 c -474.87,2141.6 -623.03,4040.9 -648.73,5432.8 1938.75,135.3 3121.64,1091.6 3121.64,2563.6 z M 24263.2,35083 l -205.8,352.7 -381.8,-144.6 C 20560.2,34111 17407,33512.5 14303.9,33512.5 c -3623.9,0 -5800.53,786.1 -8555.99,1781.1 l -296.89,107.3 -217.12,-229.1 c -37.61,-39.6 -3771.98,-3977.4 -4885.673,-5091 L 7.07422,29739.6 348.227,29398.5 c 2875.263,-2875.2 2984.723,-3300 2984.723,-4635.8 0,-1498.8 -2023.42,-1615.3 -2643.571,-1615.3 H 206.949 V 22665 c 0,-2838.1 429.719,-7144.9 2476.881,-11545.6 C 4847.73,6468.1 8317.4,2766.1 12996.7,116.398 l 196,-110.898 210.9,78.7969 C 18627.1,2038.6 22814.6,5653.9 25513,10539.5 c 2870.4,5197.1 3093.6,9870.8 3093.6,11179.4 0,3926.9 -1461.3,8423.2 -4343.4,13364.1"
         style="fill:#231f20;fill-opacity:1;fill-rule:nonzero;stroke:none"
         id="path24" /><path
         d="M 13276.3,1068.1 C 11658.1,2002.3 10254.7,3037.3 9036.18,4136.8 L 27637.5,22069.4 c 2.6,-117.4 4.2,-234.2 4.2,-350.5 C 27641.7,16467 24633,5437.6 13276.3,1068.1 Z M 2048.21,15838.6 20182.2,33017.9 l 322.4,283.2 c 924.5,198.9 1927.8,508.4 3127.9,944.8 2318.8,-4054.4 3640.5,-7775.1 3942.1,-11088.3 L 8431.56,4702.8 C 4812.78,8209.7 2968.86,12289.2 2048.21,15838.6 Z m 2249.61,8924.1 c 0,1622.4 -259.96,2280.3 -2929.07,4978.2 1179.13,1203.6 3609.86,3760.7 4348.21,4538.2 2995.16,-1076.3 5091.64,-1731.4 8586.94,-1731.4 1533.3,0 3077.5,140.8 4622.5,419.8 L 1824.91,16766.3 c -474.87,2141.6 -623.03,4040.9 -648.73,5432.8 1938.75,135.3 3121.64,1091.6 3121.64,2563.6 z M 24263.2,35083 l -205.8,352.7 -381.8,-144.6 C 20560.2,34111 17407,33512.5 14303.9,33512.5 c -3623.9,0 -5800.53,786.1 -8555.99,1781.1 l -296.89,107.3 -217.12,-229.1 c -37.61,-39.6 -3771.98,-3977.4 -4885.673,-5091 L 7.07422,29739.6 348.227,29398.5 c 2875.263,-2875.2 2984.723,-3300 2984.723,-4635.8 0,-1498.8 -2023.42,-1615.3 -2643.571,-1615.3 H 206.949 V 22665 c 0,-2838.1 429.719,-7144.9 2476.881,-11545.6 C 4847.73,6468.1 8317.4,2766.1 12996.7,116.398 l 196,-110.898 210.9,78.7969 C 18627.1,2038.6 22814.6,5653.9 25513,10539.5 c 2870.4,5197.1 3093.6,9870.8 3093.6,11179.4 0,3926.9 -1461.3,8423.2 -4343.4,13364.1 z"
         style="fill:none;stroke:#231f20;stroke-width:10;stroke-linecap:butt;stroke-linejoin:miter;stroke-miterlimit:10;stroke-dasharray:none;stroke-opacity:1"
         id="path26" /><g
         id="g28"
         transform="scale(10)"><text
           transform="matrix(0.71463097,0.69709094,0.6993846,-0.71698272,772.352,733.1)"
           style="font-style:italic;font-variant:normal;font-weight:bold;font-size:1044.63px;font-family:Arial;-inkscape-font-specification:Arial-BoldItalicMT;writing-mode:lr-tb;fill:#231f20;fill-opacity:1;fill-rule:nonzero;stroke:none"
           id="text34"><tspan
             x="0"
             y="0"
             id="tspan30">O</tspan><tspan
             x="812.54749 1566.9445 1857.1749"
             y="0.0012166027"
             sodipodi:role="line"
             id="tspan32">DIN</tspan></text></g><path
         d="m 7522.64,9254.5 c 470.55,-198.69 979.69,-242.78 1549.49,-139.98 555.03,102.98 1082.57,398.43 1582.67,886.28 567.3,553.5 943.5,1198.3 1121.2,1927.1 177.7,728.9 134.2,1490.3 -115.7,2284.3 -250.1,779.2 -656.4,1464.5 -1204.2,2026.3 -664.81,681.5 -1399.61,1031.7 -2211.92,1043.1 -804.83,18.7 -1546.8,-295.8 -2203.63,-936.7 -500.09,-487.9 -845.5,-1014.9 -1028.94,-1588.5 -190.87,-580.9 -241.54,-1171.2 -159.29,-1763.3 82.26,-592.2 297.43,-1186.2 630.78,-1781.8 246.29,-446.7 530.25,-827.5 837.06,-1142.1 336.03,-344.5 731.94,-616 1202.48,-814.7 z m -1241.53,4050.9 c -153.54,829.5 30.99,1506.6 568.39,2030.9 350.82,342.2 751.35,499.1 1216.47,485.2 457.69,-21.2 898.39,-249 1307.47,-668.5 372.56,-382 662.86,-858.9 870.86,-1430.6 208.1,-571.7 276.3,-1089.8 197.4,-1561.5 -78.8,-456.9 -267.4,-831 -565.98,-1122.3 -365.75,-356.8 -781.03,-513.5 -1246.01,-484.8 -465,28.8 -883.77,234.1 -1241.71,601.1 -584.42,599.2 -953.31,1321 -1106.89,2150.5 z m 9450.99,1838 c 477.7,466.1 799.3,838.3 979.5,1116.5 308.1,490.6 490.4,960.8 547,1410.7 80.2,589.8 5.7,1218.8 -208.7,1886.6 -214.5,653.1 -606.6,1279.2 -1169.1,1855.9 -263,269.6 -533.9,487.7 -805.3,661.4 -278.9,166.4 -550.8,295.9 -823.3,366.2 -272.5,70.3 -545.5,96.3 -804.2,77.8 -266,-11.1 -510.4,-74.1 -755.3,-181.5 -244.7,-92.6 -482.6,-236.9 -728.4,-432.9 -119.3,-101.8 -387.8,-349.2 -790.9,-742.4 L 9732.84,19756.2 13843.7,13301 Z m -4226.7,4617.4 642,626.3 c 328.4,320.4 574.2,516.4 744.9,595.3 237.6,114.8 518.5,140.4 827.9,62.2 309.5,-63.5 654.1,-297.3 1026.7,-679.3 431,-441.9 736.2,-904.2 908.4,-1379.4 172.1,-475.2 248.6,-912.2 222,-1332.8 -17.8,-280.5 -94.4,-530.6 -229.8,-765.1 -128,-227.2 -397.2,-533.7 -807.8,-934.2 l -559.8,-546.1 z m 8773.2,-182.6 -4110.9,6455.2 -1097.2,-1070.5 4110.9,-6455.2 z m 1181.5,11618.2 -1022.6,-997.7 2752.8,-4315.9 -4947.2,2174.9 -1022.6,-997.6 4110.9,-6455.2 1022.6,997.7 -2759.9,4338.2 4954.3,-2197.3 1022.6,997.7 z"
         style="fill:none;stroke:#231f20;stroke-width:10;stroke-linecap:butt;stroke-linejoin:miter;stroke-miterlimit:4;stroke-dasharray:none;stroke-opacity:1"
         id="path36" /><g
         id="g38"
         transform="scale(10)"><text
           transform="matrix(0.74470141,0.69214056,0.66739779,-0.71808326,681.563,2437.69)"
           style="font-variant:normal;font-weight:bold;font-size:500.444px;font-family:Arial;-inkscape-font-specification:Arial-BoldMT;writing-mode:lr-tb;fill:#ffffff;fill-opacity:1;fill-rule:nonzero;stroke:#231f20;stroke-width:0.73248;stroke-linecap:butt;stroke-linejoin:miter;stroke-miterlimit:4;stroke-dasharray:none;stroke-opacity:1"
           id="text42"><tspan
             x="0 333.79227"
             y="0"
             sodipodi:role="line"
             id="tspan40">SV</tspan></text></g><g
         id="g44"
         transform="scale(10)"><text
           transform="matrix(0.73790674,0.68582453,0.67490269,-0.72615811,1588.41,474.41)"
           style="font-variant:normal;font-weight:bold;font-size:494.88px;font-family:Arial;-inkscape-font-specification:Arial-BoldMT;writing-mode:lr-tb;fill:#ffffff;fill-opacity:1;fill-rule:nonzero;stroke:none"
           id="text48"><tspan
             x="0 275.22803 550.4574 825.68622"
             y="0"
             sodipodi:role="line"
             id="tspan46">1905</tspan></text></g><path
         d="m 14914.7,8664.97 -405.3,-376.76 c 88.5,-212.41 109.6,-447.38 66.7,-701.5 -43.1,-261.13 -112,-472.55 -203.4,-637.88 l 417.4,-449.11 c 171.5,313.46 273.3,635.88 298.9,974.46 l 1729.8,-1861.14 500.1,465.01 z m 3306,-1534.76 c 228,11.04 442.3,109.88 646.8,299.96 281.1,261.36 414.3,579.39 395.9,950.7 -14.8,374.7 -244.4,797.5 -681.8,1268.19 -430.8,463.44 -822,715.94 -1183.9,761.24 -355,45.1 -667.5,-58 -934,-305.8 -241,-223.99 -368.4,-489.72 -375.1,-797.36 -10.1,-304.03 106.6,-590.71 347.1,-849.41 233.7,-251.5 493.7,-384.81 790.4,-403.73 293.2,-15.35 545.6,71.95 750.1,262.03 189.8,176.5 280,394.29 270.6,653.42 255.6,-311.58 388.4,-549.74 405.5,-714.63 17.5,-157.9 -26.7,-286.07 -129,-381.12 -80.3,-74.67 -169.4,-110.63 -263.9,-111.42 -90.9,2.58 -190.5,43.89 -291.6,130.72 l -435.5,-505.35 c 233.5,-178.04 464.1,-265.04 688.4,-257.44 z M 17864,9095.78 c 4.4,-136.55 -42.6,-247.17 -141.1,-338.82 -98.6,-91.64 -219.3,-130.18 -355.2,-115.82 -139.1,17.95 -285.5,109.56 -439.1,274.82 -150.3,161.69 -231.3,307.41 -236,436.97 -4.7,129.57 38.5,236.78 129.8,321.64 98.6,91.64 222.6,126.58 382.8,108.05 153.2,-18.34 303.2,-106.56 450.1,-264.66 137,-147.31 204.3,-285.64 208.7,-422.18 z m 330.3,2128.32 c 28.8,-375.1 268.7,-801.7 719.5,-1286.74 460.8,-495.82 858.1,-769.47 1192.1,-813.93 337.3,-48.08 631.9,45 887.4,282.59 252,234.2 369,503.72 347.7,812.18 -28.7,375.1 -268.7,801.7 -722.8,1290.3 -454.1,488.6 -865.3,762.7 -1234,815.1 -306,43.7 -586.6,-49.8 -838.5,-284 -255.6,-237.5 -372.6,-507.1 -351.4,-815.5 z m 942.5,494.4 c 84.2,4.6 190.8,-36.9 327.2,-117.7 136,-87.8 341,-279.1 624.8,-584.5 280.5,-301.8 462.6,-534.3 546.6,-690.6 64.6,-120.8 91.6,-223 80.8,-306.6 -10.7,-83.69 -45.1,-149.17 -103.5,-203.49 -62.1,-57.7 -129.9,-87.25 -214.1,-91.86 -80.9,-8.2 -187.5,33.32 -323.6,121.14 -136.3,80.83 -344.6,275.61 -625.1,577.41 -283.9,305.4 -462.6,534.4 -550,694.3 -64.6,120.8 -91.5,223 -80.8,306.6 10.8,83.7 45.2,149.1 107.2,206.9 58.5,54.3 126.3,83.8 210.5,88.4 z m 3141,-764 c 270.2,16.9 523.8,132.1 768.4,359.5 299.4,278.3 429.9,613.9 391.1,999.8 -29.4,280.7 -144.4,528.8 -341.4,740.8 -237.1,255.1 -507.4,392.2 -811.3,404.3 -303.7,19.2 -567,-78.3 -789.7,-285.3 -116.8,-108.7 -203.3,-242.6 -266.4,-401.7 l -327,513 945.6,879.1 -427.5,459.9 -1325.3,-1232.1 986.7,-1574.2 458.6,319.3 c -3.6,230.9 71,414.2 213.4,546.6 116.9,108.6 248.5,157.3 391.3,142.8 146.5,-11.2 296.6,-99.4 443.5,-257.5 156.9,-168.9 237.3,-328.5 244.4,-482.7 3.8,-150.5 -43.7,-275.1 -149.6,-373.5 -91.3,-84.9 -201.7,-127.2 -331.1,-127 -133.2,-3.2 -256.8,49.3 -374.9,147.1 l -453.5,-515.3 c 229.6,-188.5 481.1,-276.1 754.7,-262.9 z"
         style="fill:none;stroke:#231f20;stroke-width:9.99994;stroke-linecap:butt;stroke-linejoin:miter;stroke-miterlimit:10;stroke-dasharray:none;stroke-opacity:1"
         id="path50" /></g></g></svg>
